<?xml version="1.0" encoding="UTF-8" standalone="no"?>
<svg
   xmlns:dc="http://purl.org/dc/elements/1.1/"
   xmlns:cc="http://creativecommons.org/ns#"
   xmlns:rdf="http://www.w3.org/1999/02/22-rdf-syntax-ns#"
   xmlns:svg="http://www.w3.org/2000/svg"
   xmlns="http://www.w3.org/2000/svg"
   viewBox="0 0 258.66666 258.66666"
   height="258.66666"
   width="258.66666"
   xml:space="preserve"
   id="svg2"
   version="1.1"><metadata
     id="metadata8"><rdf:RDF><cc:Work
         rdf:about=""><dc:format>image/svg+xml</dc:format><dc:type
           rdf:resource="http://purl.org/dc/dcmitype/StillImage" /></cc:Work></rdf:RDF></metadata><defs
     id="defs6" /><g
     transform="matrix(1.3333333,0,0,-1.3333333,0,258.66667)"
     id="g10"><g
       transform="scale(0.1)"
       id="g12"><path
         id="path14"
         style="fill:#ffffff;fill-opacity:1;fill-rule:evenodd;stroke:none"
         d="M 2.59766,1933.23 H 1930.16 V 5.66797 H 2.59766 V 1933.23" /><path
         id="path16"
         style="fill:#231f20;fill-opacity:1;fill-rule:evenodd;stroke:none"
         d="m 883.172,1257.97 c -23.418,24.66 -35.75,53.01 -35.75,86.29 0,34.52 12.332,62.87 35.75,86.29 24.652,24.65 53.008,35.75 86.289,35.75 34.509,0 62.859,-11.1 86.289,-35.75 24.65,-23.42 35.74,-51.77 35.74,-86.29 0,-33.28 -11.09,-61.63 -35.74,-86.29 -23.43,-23.42 -51.78,-35.74 -86.289,-35.74 -33.281,0 -61.637,12.32 -86.289,35.74 z M 1091.49,612.047 c -3.69,-28.352 -9.86,-48.078 -16.02,-61.637 -19.72,-40.68 -55.47,-61.637 -106.009,-61.637 -51.773,0 -87.523,20.957 -107.242,62.868 -6.168,14.793 -11.098,35.75 -14.797,62.871 v 36.98 c 0,34.516 -13.551,59.172 -40.676,73.969 -8.629,3.687 -20.949,7.387 -39.449,8.617 h -45.609 c -8.629,1.238 -14.79,1.238 -18.489,2.473 -12.324,4.926 -18.492,11.086 -18.492,20.953 0,7.394 2.469,14.793 7.398,23.426 6.165,8.625 14.793,19.711 29.583,34.508 l 202.16,204.632 c 33.285,27.11 61.632,39.45 86.292,39.45 34.51,0 59.17,-13.57 72.73,-40.69 3.7,-8.63 7.39,-22.185 8.62,-40.678 V 612.047" /><path
         id="path18"
         style="fill:#231f20;fill-opacity:1;fill-rule:evenodd;stroke:none"
         d="m 202.73,577.531 c -20.957,-30.82 -18.492,-71.5 6.161,-92.457 L 619.379,143.625 c 24.652,-20.957 61.633,-13.562 83.82,17.258 v 0 c 20.957,29.578 18.489,71.496 -7.398,92.449 l -409.25,341.457 c -24.653,20.957 -62.863,12.328 -83.821,-17.258 v 0" /><path
         id="path20"
         style="fill:#231f20;fill-opacity:1;fill-rule:nonzero;stroke:none"
         d="m 1015.07,1810.45 c 212.95,-12.05 404.8,-103.69 546.55,-245.66 152.28,-152.53 246.45,-363.09 246.45,-595.267 0,-232.324 -94.1,-442.597 -246.29,-594.781 C 1409.6,222.555 1199.32,128.445 966.996,128.445 c -232.18,0 -442.73,94.172 -595.269,246.457 C 219.145,527.234 124.68,737.453 124.68,969.523 c 0,232.327 94.425,442.927 246.906,595.407 139.434,139.43 327.457,230.28 536.238,244.83 12.926,-0.58 22.192,-11.47 22.192,-23.42 V 1675.4 c 0,-11.95 -9.266,-21.63 -22.192,-22.2 C 742.141,1639 593.102,1565.72 481.945,1454.57 357.707,1330.33 280.773,1158.77 280.773,969.523 c 0,-189.328 76.75,-360.507 200.704,-484.261 124.222,-124.028 295.945,-200.727 485.519,-200.727 189.244,0 360.504,76.637 484.424,200.563 123.92,123.922 200.56,295.179 200.56,484.425 0,189.567 -76.7,361.297 -200.72,485.517 -113.19,113.37 -266.05,187.23 -436.19,199.02 -12.91,0.58 -22.187,11.08 -22.187,23.03 v 110.94 c 0,11.95 9.277,21.85 22.187,22.42" /></g></g></svg>